# xmcd
#
# Track frame offsets: 
#        150
#        5472
#        26771
#        54449
#        78837
#        107609
#        132573
#        156930
#        180790
#        205756
#        230097
#
# Disc length: 3481 seconds
#
# Revision: 0
# Processed by: cddbd v1.5.2PL0 Copyright (c) Steve Scherf et al.
# Submitted via: ExactAudioCopy v0.99pb4
#
DISCID=830d970b
DTITLE=Jay Jesse Johnson - Play That Damn Guitar 
DYEAR=2009
DGENRE=Blues
TTITLE0=INNER SANCTUM
TTITLE1=HEAR NO EVIL
TTITLE2=DREAM AWAY
TTITLE3=BAD VOODOO
TTITLE4=BLUES FOR THE DEVIL
TTITLE5=PLAY THAT DAMN GUITAR
TTITLE6=BAD BLOOD
TTITLE7=RATTLESNAKE STOMP
TTITLE8=SALT OF THE EARTH
TTITLE9=SHINE ON
TTITLE10=SIX STRING ANGEL
EXTD=
EXTT0=
EXTT1=
EXTT2=
EXTT3=
EXTT4=
EXTT5=
EXTT6=
EXTT7=
EXTT8=
EXTT9=
EXTT10=
PLAYORDER=
